<?xml version="1.0" standalone="no"?>
<!DOCTYPE svg PUBLIC "-//W3C//DTD SVG 20010904//EN"
 "http://www.w3.org/TR/2001/REC-SVG-20010904/DTD/svg10.dtd">
<svg version="1.0" xmlns="http://www.w3.org/2000/svg"
 width="997.000000pt" height="997.000000pt" viewBox="0 0 997.000000 997.000000"
 preserveAspectRatio="xMidYMid meet">

<g transform="translate(0.000000,997.000000) scale(0.100000,-0.100000)"
fill="#000000" stroke="none">
<path d="M4581 9675 c-666 -68 -1107 -246 -1469 -590 -347 -330 -572 -814
-622 -1339 -31 -335 25 -728 149 -1038 323 -809 1109 -1410 2161 -1653 80 -18
153 -33 163 -32 16 0 17 16 17 186 0 394 52 748 155 1056 183 545 540 1030
985 1334 233 159 510 283 796 355 410 103 883 97 1281 -18 231 -67 437 -154
612 -259 51 -32 95 -57 98 -57 12 0 -177 254 -286 385 -163 194 -465 487 -638
618 -114 87 -337 232 -429 280 -188 97 -398 165 -644 209 -47 8 -152 13 -285
13 -223 -1 -321 -13 -547 -71 -202 -51 -440 -150 -622 -258 -196 -116 -437
-324 -594 -511 -151 -180 -313 -464 -390 -686 -102 -291 -151 -680 -123 -979
49 -533 216 -988 544 -1478 38 -57 66 -106 64 -109 -10 -9 -216 178 -350 317
-170 176 -274 305 -393 485 -433 657 -547 1430 -312 2115 81 235 177 418 329
631 370 518 900 866 1549 1020 l55 13 -115 18 c-316 49 -341 51 -675 54 -229
2 -371 -2 -464 -11z"/>
<path d="M2055 8737 c-227 -170 -321 -252 -546 -476 -265 -266 -474 -529 -596
-751 -100 -182 -177 -423 -208 -646 -23 -164 -16 -492 14 -649 80 -422 257
-774 558 -1109 157 -174 431 -379 661 -495 317 -159 756 -261 1123 -261 307 0
706 75 1019 191 225 84 538 243 803 406 48 30 87 55 87 56 0 1 -132 1 -292 -1
-513 -5 -862 48 -1250 189 -633 232 -1162 714 -1423 1297 -207 464 -259 984
-149 1503 56 270 199 618 342 837 8 12 13 22 11 22 -2 0 -72 -51 -154 -113z"/>
<path d="M7270 7334 c-138 -19 -405 -84 -527 -130 -365 -136 -730 -391 -1000
-697 -298 -339 -494 -683 -650 -1142 -61 -182 -105 -338 -96 -346 5 -4 121
-12 258 -18 660 -30 1054 -120 1493 -340 278 -139 466 -275 683 -491 391 -390
614 -833 701 -1395 29 -185 31 -542 5 -711 -52 -336 -160 -638 -328 -916 -33
-54 -59 -100 -59 -103 0 -11 241 158 351 247 276 220 472 415 682 678 136 169
207 277 278 418 154 306 217 591 206 937 -25 819 -532 1598 -1282 1972 -386
192 -720 268 -1185 267 -265 0 -418 -17 -640 -70 -306 -73 -772 -259 -1062
-425 -49 -28 -91 -49 -94 -46 -7 7 246 247 371 352 525 439 1075 684 1654 736
163 14 455 7 596 -15 393 -62 772 -219 1090 -451 485 -354 836 -877 1007
-1502 37 -135 36 -137 62 85 81 700 5 1399 -205 1885 -288 665 -946 1130
-1729 1222 -154 18 -439 18 -580 -1z"/>
<path d="M217 5765 c-37 -239 -56 -584 -46 -847 23 -579 134 -1046 327 -1368
271 -451 749 -789 1322 -935 538 -137 1120 -71 1631 186 715 358 1214 1040
1479 2019 23 85 46 159 51 164 23 25 4 -498 -27 -744 -60 -477 -212 -911 -439
-1256 -409 -619 -1040 -1010 -1785 -1105 -124 -16 -419 -16 -540 0 -411 55
-769 176 -1119 379 -52 30 -51 29 43 -98 253 -340 591 -689 878 -907 348 -264
641 -402 988 -465 159 -29 512 -31 675 -5 679 112 1271 512 1620 1095 392 655
437 1457 130 2307 -76 208 -249 555 -383 765 l-35 54 -141 -145 c-351 -362
-569 -540 -888 -726 -289 -167 -567 -268 -898 -325 -105 -19 -165 -22 -375
-22 -256 0 -360 10 -575 60 -290 66 -645 235 -915 436 -137 103 -416 380 -511
508 -189 256 -325 532 -408 830 -57 204 -52 192 -59 145z"/>
<path d="M5181 4823 c195 -198 323 -346 437 -506 391 -549 581 -1130 559
-1707 -22 -540 -208 -1017 -565 -1448 -349 -422 -876 -742 -1437 -872 -66 -15
-113 -30 -105 -34 30 -11 349 -56 504 -71 182 -17 549 -20 711 -5 434 40 742
115 1020 249 231 112 384 220 570 406 388 387 605 935 605 1525 0 619 -238
1195 -685 1659 -379 393 -791 646 -1412 867 -133 47 -325 104 -352 104 -8 0
60 -75 150 -167z"/>
</g>
</svg>
